<svg width="42" height="42" viewBox="0 0 42 42" fill="none" xmlns="http://www.w3.org/2000/svg">
<circle cx="20.7692" cy="20.7692" r="19.7692" stroke="black" stroke-width="2"/>
<path fill-rule="evenodd" clip-rule="evenodd" d="M19.9656 11.0537C15.8044 11.5648 12.5341 14.8819 12.1034 19.0284C12.0396 19.643 12.0783 20.8065 12.182 21.3939C12.3463 22.3238 12.6182 23.142 13.0407 23.978L13.253 24.3982L12.6204 26.6945C12.2725 27.9575 11.9934 28.9949 12.0001 28.9999C12.0069 29.0049 13.0666 28.7322 14.355 28.3939C16.2305 27.9015 16.7163 27.786 16.7919 27.8147C16.8439 27.8343 17.0904 27.9424 17.3397 28.0548C18.1496 28.4198 19.0002 28.6618 19.8951 28.7821C20.5171 28.8657 21.6086 28.8652 22.2136 28.781C24.1995 28.5048 25.9738 27.632 27.3721 26.2436C28.1034 25.5175 28.5897 24.8534 29.0526 23.9486C29.4695 23.1337 29.7637 22.2454 29.928 21.3048C30.0241 20.755 30.024 19.1396 29.9278 18.5635C29.7653 17.5902 29.5145 16.8126 29.086 15.9537C27.8665 13.5094 25.6145 11.767 22.9218 11.1844C22.0825 11.0028 20.8307 10.9475 19.9656 11.0537ZM22.327 12.6079C23.4108 12.8071 24.3095 13.167 25.1984 13.7576C26.716 14.766 27.8331 16.3319 28.2746 18.0697C28.5989 19.3458 28.5734 20.7953 28.2051 22.0224C27.6096 24.0065 26.1904 25.6766 24.3331 26.5787C23.2533 27.1031 22.2541 27.3318 21.0424 27.3318C19.6536 27.3318 18.4225 26.9969 17.166 26.2772L16.9544 26.156L15.5639 26.5191C14.7991 26.7188 14.1676 26.8765 14.1605 26.8694C14.1534 26.8624 14.3103 26.2676 14.5092 25.5477C14.708 24.8278 14.8722 24.2123 14.874 24.18C14.8758 24.1476 14.778 23.9606 14.6567 23.7644C12.8748 20.8821 13.3418 17.0809 15.7732 14.6769C16.9826 13.4811 18.5138 12.7462 20.2301 12.5378C20.6936 12.4815 21.8495 12.5201 22.327 12.6079ZM17.5153 15.8844C17.2968 15.9919 16.8976 16.4606 16.7307 16.8055C16.4028 17.483 16.4095 18.337 16.7488 19.1278C17.1659 20.0996 18.257 21.4794 19.3342 22.397C20.0892 23.0402 20.7201 23.4171 21.6469 23.7786C22.5937 24.148 22.7753 24.1905 23.4038 24.1902C23.8981 24.1901 23.9765 24.1807 24.2063 24.0946C24.5842 23.9531 24.8663 23.7749 25.1473 23.5C25.3653 23.2866 25.4092 23.2199 25.4805 22.993C25.5696 22.7101 25.6204 22.2549 25.5806 22.0973C25.5598 22.0149 25.4531 21.948 24.9163 21.6809C23.9328 21.1915 23.5364 21.0231 23.368 21.0231C23.2299 21.0231 23.2064 21.04 23.0395 21.2578C22.658 21.7559 22.308 22.1416 22.2168 22.1643C22.1075 22.1916 21.8929 22.1135 21.3972 21.866C20.5945 21.4654 19.9397 20.9296 19.3767 20.213C19.0703 19.823 18.7944 19.3785 18.7944 19.275C18.7944 19.2306 18.9364 19.0101 19.1101 18.7851C19.4504 18.3439 19.55 18.1792 19.55 18.0581C19.55 18.0156 19.4762 17.8077 19.386 17.5962C19.2958 17.3847 19.114 16.9497 18.9818 16.6296C18.818 16.2328 18.7031 16.0087 18.6206 15.9255L18.4997 15.8035L18.0897 15.8035C17.7461 15.8035 17.6532 15.8166 17.5153 15.8844Z" fill="black"/>
</svg>
