<svg width="42" height="42" viewBox="0 0 42 42" fill="none" xmlns="http://www.w3.org/2000/svg">
<circle cx="20.7692" cy="20.7692" r="19.7692" stroke="black" stroke-width="2"/>
<path fill-rule="evenodd" clip-rule="evenodd" d="M29.0674 12.0559C28.949 12.0901 27.3318 12.7101 25.4736 13.4337C23.6154 14.1573 19.3932 15.801 16.0911 17.0864C12.7889 18.3717 9.96407 19.4843 9.81378 19.5587C9.51642 19.7061 9.21054 19.981 9.09877 20.2016C8.98747 20.4211 8.96844 20.7319 9.05082 20.985C9.13965 21.2579 9.46585 21.5877 9.80732 21.7498C9.93752 21.8117 10.9481 22.1266 12.053 22.4496L14.0619 23.037L15.1448 26.1987C15.86 28.2867 16.2783 29.4455 16.3765 29.6109C16.5595 29.9191 16.8541 30.1922 17.167 30.3437C17.3734 30.4436 17.459 30.4582 17.8341 30.458C18.1938 30.4577 18.3016 30.4406 18.4902 30.3539C18.8449 30.1908 19.0153 30.0483 20.3095 28.8335C20.9784 28.2056 21.5412 27.6918 21.5601 27.6918C21.579 27.6918 22.3751 28.3336 23.3291 29.118C24.2831 29.9024 25.158 30.6089 25.2732 30.688C25.7424 31.0101 26.4409 31.0948 26.9033 30.8857C27.2885 30.7114 27.6611 30.2783 27.8199 29.8201C27.8573 29.7122 28.5885 26.1065 29.4448 21.8075C30.8598 14.7038 31.0016 13.953 31 13.5739C30.9969 12.8644 30.759 12.4314 30.2248 12.1631C29.891 11.9954 29.4257 11.9523 29.0674 12.0559ZM29.6829 13.3631C29.7113 13.3921 29.7345 13.4762 29.7345 13.55C29.7345 13.7801 26.6362 29.308 26.5585 29.4672C26.3585 29.8773 26.2561 29.8277 24.7504 28.5923C20.6335 25.2144 19.6418 24.3902 19.6418 24.3466C19.6418 24.3199 21.1428 22.6722 22.9773 20.685C24.8119 18.6978 26.3484 17.0165 26.3918 16.9487C26.4949 16.7876 26.4945 16.4692 26.3908 16.2848C26.3046 16.1315 25.9945 15.9452 25.8257 15.9452C25.7158 15.9452 25.219 16.1999 18.6834 19.6078L14.497 21.7907L12.5613 21.2282C11.4967 20.9189 10.6258 20.6559 10.6259 20.6438C10.6261 20.6317 11.8704 20.1387 13.3909 19.5482C14.9115 18.9577 17.0368 18.1311 18.1139 17.7113C19.191 17.2915 20.6726 16.7141 21.4064 16.4282C22.9593 15.8231 29.252 13.377 29.3471 13.3415C29.4625 13.2984 29.63 13.3092 29.6829 13.3631ZM22.6047 19.1618C21.7412 20.0809 18.1418 24.0082 18.0946 24.0828C18.0612 24.1356 17.8365 24.9988 17.5952 26.0011C17.354 27.0034 17.1444 27.8466 17.1295 27.8747C17.1147 27.9029 16.71 26.7785 16.2303 25.376C15.7506 23.9736 15.3632 22.8223 15.3695 22.8177C15.3908 22.8018 19.5071 20.6576 21.0621 19.8523C21.9143 19.411 22.6299 19.0331 22.6524 19.0125C22.6749 18.9919 22.7128 18.9751 22.7367 18.9751C22.7605 18.9751 22.7012 19.0591 22.6047 19.1618ZM19.8038 26.2182C20.1999 26.5428 20.5226 26.8195 20.5207 26.8329C20.5158 26.8692 18.2374 28.9962 18.2214 28.9795C18.2139 28.9716 18.3796 28.2539 18.5897 27.3844C18.7998 26.5149 18.9827 25.7577 18.9963 25.7016C19.0098 25.6455 19.0349 25.606 19.0522 25.6138C19.0693 25.6216 19.4076 25.8935 19.8038 26.2182Z" fill="black"/>
</svg>
