<svg width="41" height="42" viewBox="0 0 41 42" fill="none" xmlns="http://www.w3.org/2000/svg">
<path d="M23.6923 11.7695H15.3846C13.0905 11.7695 11.2307 13.7068 11.2307 16.0965V24.7503C11.2307 27.14 13.0905 29.0772 15.3846 29.0772H23.6923C25.9864 29.0772 27.8461 27.14 27.8461 24.7503V16.0965C27.8461 13.7068 25.9864 11.7695 23.6923 11.7695Z" stroke="black" stroke-width="2" stroke-linecap="round" stroke-linejoin="round"/>
<path d="M23.6509 19.8644C23.7683 20.6566 23.633 21.4657 23.2641 22.1766C22.8953 22.8875 22.3116 23.464 21.5963 23.8241C20.8809 24.1842 20.0701 24.3095 19.2794 24.1823C18.4887 24.055 17.7582 23.6817 17.1919 23.1154C16.6256 22.549 16.2523 21.8186 16.125 21.0279C15.9978 20.2371 16.1231 19.4264 16.4832 18.711C16.8433 17.9956 17.4198 17.412 18.1306 17.0431C18.8415 16.6743 19.6506 16.5389 20.4429 16.6564C21.251 16.7763 21.9991 17.1528 22.5768 17.7305C23.1545 18.3082 23.531 19.0563 23.6509 19.8644Z" stroke="black" stroke-width="2" stroke-linecap="round" stroke-linejoin="round"/>
<path d="M40 21C40 32.0686 31.247 41 20.5 41C9.75303 41 1 32.0686 1 21C1 9.93145 9.75303 1 20.5 1C31.247 1 40 9.93145 40 21Z" stroke="black" stroke-width="2"/>
</svg>
