<svg width="19" height="19" viewBox="0 0 19 19" fill="none" xmlns="http://www.w3.org/2000/svg">
<path fill-rule="evenodd" clip-rule="evenodd" d="M8.14791 0.0786944C7.42076 0.164281 6.25205 0.497492 5.52955 0.825036C3.7032 1.65316 1.85664 3.48311 0.957892 5.35561C-0.85416 9.13104 -0.0503821 13.4958 2.98848 16.3824C6.5829 19.7967 12.0257 19.8799 15.8606 16.5792C18.1051 14.6475 19.2698 11.5993 18.9469 8.50183C18.7195 6.3204 17.8908 4.48833 16.4411 2.96181C14.3029 0.710442 11.3881 -0.302891 8.14791 0.0786944ZM11.3085 1.89207C13.0236 2.29776 14.6687 3.38205 15.7662 4.83025C16.2996 5.53397 16.8543 6.71898 17.0843 7.6458C17.3465 8.70252 17.3457 10.3654 17.0825 11.4464C16.2747 14.764 13.065 17.2396 9.57127 17.2396C7.39074 17.2396 5.6071 16.5128 4.07769 15.0011C2.98324 13.9195 2.22783 12.6087 1.8744 11.1783C1.66044 10.3123 1.6842 8.52695 1.92151 7.64072C2.74322 4.57222 5.36006 2.18562 8.3645 1.76454C9.07897 1.66441 10.6299 1.73164 11.3085 1.89207ZM9.06629 4.13473C7.31242 4.36629 5.73912 5.48602 4.97196 7.04872C4.53497 7.93892 4.38443 8.56729 4.38443 9.50129C4.38443 10.9641 4.91631 12.2654 5.93338 13.2911C6.99028 14.357 8.28594 14.8915 9.79708 14.8853C11.2332 14.8793 12.4201 14.407 13.4646 13.4261C13.7964 13.1143 14.049 12.8407 14.0257 12.818C13.9242 12.7191 12.1601 11.6579 12.0973 11.6579C12.059 11.6579 11.9216 11.7685 11.792 11.9038C11.6624 12.039 11.3223 12.2564 11.0362 12.3869C10.331 12.7083 9.32973 12.723 8.57137 12.4229C7.97023 12.185 7.22235 11.4825 6.93574 10.8863C6.51828 10.018 6.51913 8.98287 6.9381 8.11136C7.22252 7.5197 7.972 6.81683 8.57137 6.57969C9.33159 6.27887 10.3308 6.29418 11.04 6.6175C11.3284 6.74883 11.6324 6.93176 11.7157 7.02378C12.0454 7.38819 12.1079 7.37711 13.0705 6.78503C13.5726 6.47618 14.0025 6.20538 14.0257 6.18339C14.049 6.1614 13.7892 5.88156 13.4485 5.56154C12.2688 4.45357 10.6483 3.92601 9.06629 4.13473Z" fill="#3E3E3E"/>
</svg>
